<svg xmlns="http://www.w3.org/2000/svg" xmlns:xlink="http://www.w3.org/1999/xlink" width="2000" zoomAndPan="magnify" viewBox="0 0 1500 1499.999933" height="2000" preserveAspectRatio="xMidYMid meet" version="1.0"><defs><clipPath id="a7d5f3476e"><path d="M 0 85.714844 L 1500 85.714844 L 1500 1414.351562 L 0 1414.351562 Z M 0 85.714844 " clip-rule="nonzero"/></clipPath></defs><path fill="#43464b" d="M 293.964844 459.824219 L 542.707031 459.824219 L 542.707031 376.914062 L 293.964844 376.914062 L 293.964844 459.824219 " fill-opacity="1" fill-rule="nonzero"/><path fill="#43464b" d="M 625.628906 1123.152344 L 874.371094 1123.152344 L 874.371094 1040.242188 L 625.628906 1040.242188 L 625.628906 1123.152344 " fill-opacity="1" fill-rule="nonzero"/><path fill="#43464b" d="M 376.875 625.65625 L 459.796875 625.65625 L 459.796875 1040.242188 L 376.875 1040.242188 Z M 293.964844 1123.152344 L 542.707031 1123.152344 L 542.707031 542.746094 L 293.964844 542.746094 L 293.964844 1123.152344 " fill-opacity="1" fill-rule="nonzero"/><path fill="#43464b" d="M 625.628906 459.824219 L 874.371094 459.824219 L 874.371094 376.914062 L 625.628906 376.914062 L 625.628906 459.824219 " fill-opacity="1" fill-rule="nonzero"/><path fill="#43464b" d="M 293.964844 1288.984375 L 542.707031 1288.984375 L 542.707031 1206.0625 L 293.964844 1206.0625 L 293.964844 1288.984375 " fill-opacity="1" fill-rule="nonzero"/><path fill="#43464b" d="M 708.539062 625.65625 L 791.460938 625.65625 L 791.460938 874.410156 L 708.539062 874.410156 Z M 625.628906 957.320312 L 874.371094 957.320312 L 874.371094 542.746094 L 625.628906 542.746094 L 625.628906 957.320312 " fill-opacity="1" fill-rule="nonzero"/><path fill="#43464b" d="M 1374.632812 211.082031 L 125.367188 211.082031 L 125.367188 293.992188 L 1374.632812 293.992188 L 1374.632812 211.082031 " fill-opacity="1" fill-rule="nonzero"/><path fill="#43464b" d="M 1040.203125 625.65625 L 1123.125 625.65625 L 1123.125 1040.242188 L 1040.203125 1040.242188 Z M 957.292969 1123.152344 L 1206.035156 1123.152344 L 1206.035156 542.746094 L 957.292969 542.746094 L 957.292969 1123.152344 " fill-opacity="1" fill-rule="nonzero"/><g clip-path="url(#a7d5f3476e)"><path fill="#43464b" d="M 42.457031 128.160156 L 1457.542969 128.160156 L 1457.542969 376.914062 L 1288.957031 376.914062 L 1288.957031 1371.894531 L 874.371094 1371.894531 L 874.371094 1206.0625 L 625.628906 1206.0625 L 625.628906 1371.894531 L 211.042969 1371.894531 L 211.042969 376.914062 L 42.457031 376.914062 Z M 42.457031 419.359375 L 168.597656 419.359375 L 168.597656 1371.894531 C 168.597656 1395.34375 187.605469 1414.351562 211.042969 1414.351562 L 625.628906 1414.351562 C 649.066406 1414.351562 668.074219 1395.34375 668.074219 1371.894531 L 668.074219 1248.519531 L 831.925781 1248.519531 L 831.925781 1371.894531 C 831.925781 1395.34375 850.921875 1414.351562 874.371094 1414.351562 L 1288.957031 1414.351562 C 1312.40625 1414.351562 1331.402344 1395.34375 1331.402344 1371.894531 L 1331.402344 419.359375 L 1457.542969 419.359375 C 1481.003906 419.359375 1500 400.351562 1500 376.914062 L 1500 128.160156 C 1500 104.722656 1481.003906 85.714844 1457.542969 85.714844 L 42.457031 85.714844 C 19.019531 85.714844 0 104.722656 0 128.160156 L 0 376.914062 C 0 400.351562 19.019531 419.359375 42.457031 419.359375 " fill-opacity="1" fill-rule="nonzero"/></g><path fill="#43464b" d="M 957.292969 459.824219 L 1206.035156 459.824219 L 1206.035156 376.914062 L 957.292969 376.914062 L 957.292969 459.824219 " fill-opacity="1" fill-rule="nonzero"/><path fill="#43464b" d="M 957.292969 1288.984375 L 1206.035156 1288.984375 L 1206.035156 1206.0625 L 957.292969 1206.0625 L 957.292969 1288.984375 " fill-opacity="1" fill-rule="nonzero"/></svg>